<svg width="10" height="11" viewBox="0 0 10 11" fill="none" xmlns="http://www.w3.org/2000/svg">
<path fill-rule="evenodd" clip-rule="evenodd" d="M4.07233 5.3409L0.456145 8.95708L1.16143 9.66237L4.77762 6.04618L8.39354 9.6621L9.09883 8.95682L5.48291 5.3409L8.93988 1.88393L8.23459 1.17864L4.77762 4.63561L1.32039 1.17837L0.6151 1.88366L4.07233 5.3409Z" fill="white"/>
<path d="M0.456145 8.95708L0.266697 8.79298L0.102591 8.95708L0.266697 9.12119L0.456145 8.95708ZM4.07233 5.3409L4.26178 5.505L4.42589 5.3409L4.26178 5.17679L4.07233 5.3409ZM1.16143 9.66237L0.971984 9.82648L1.16143 10.0159L1.35088 9.82648L1.16143 9.66237ZM4.77762 6.04618L4.96707 5.88208L4.77762 5.69263L4.58817 5.88208L4.77762 6.04618ZM8.39354 9.6621L8.20409 9.82621L8.39354 10.0157L8.58299 9.82621L8.39354 9.6621ZM9.09883 8.95682L9.28828 9.12092L9.45238 8.95682L9.28828 8.79271L9.09883 8.95682ZM5.48291 5.3409L5.29346 5.17679L5.12936 5.3409L5.29346 5.505L5.48291 5.3409ZM8.93988 1.88393L9.12932 2.04803L9.29343 1.88393L9.12932 1.71982L8.93988 1.88393ZM8.23459 1.17864L8.42404 1.01454L8.23459 0.825088L8.04514 1.01454L8.23459 1.17864ZM4.77762 4.63561L4.58817 4.79971L4.77762 4.98916L4.96707 4.79971L4.77762 4.63561ZM1.32039 1.17837L1.50984 1.01427L1.32039 0.82482L1.13094 1.01427L1.32039 1.17837ZM0.6151 1.88366L0.425652 1.71955L0.261546 1.88366L0.425652 2.04777L0.6151 1.88366ZM0.645593 9.12119L4.26178 5.505L3.88289 5.17679L0.266697 8.79298L0.645593 9.12119ZM1.35088 9.49827L0.645593 8.79298L0.266697 9.12119L0.971984 9.82648L1.35088 9.49827ZM4.58817 5.88208L0.971984 9.49827L1.35088 9.82648L4.96707 6.21029L4.58817 5.88208ZM8.58299 9.498L4.96707 5.88208L4.58817 6.21029L8.20409 9.82621L8.58299 9.498ZM8.90938 8.79271L8.20409 9.498L8.58299 9.82621L9.28828 9.12092L8.90938 8.79271ZM5.29346 5.505L8.90938 9.12092L9.28828 8.79271L5.67236 5.17679L5.29346 5.505ZM8.75043 1.71982L5.29346 5.17679L5.67236 5.505L9.12932 2.04803L8.75043 1.71982ZM8.04514 1.34275L8.75043 2.04803L9.12932 1.71982L8.42404 1.01454L8.04514 1.34275ZM4.96707 4.79971L8.42404 1.34275L8.04514 1.01454L4.58817 4.4715L4.96707 4.79971ZM1.13094 1.34248L4.58817 4.79971L4.96707 4.4715L1.50984 1.01427L1.13094 1.34248ZM0.804548 2.04777L1.50984 1.34248L1.13094 1.01427L0.425652 1.71955L0.804548 2.04777ZM4.26178 5.17679L0.804548 1.71956L0.425652 2.04777L3.88289 5.505L4.26178 5.17679Z" fill="white"/>
</svg>
